<?xml version="1.0" encoding="UTF-8" standalone="no"?>
<svg xmlns="http://www.w3.org/2000/svg" xmlns:xlink="http://www.w3.org/1999/xlink" xmlns:serif="http://www.serif.com/" width="100%" height="100%" viewBox="0 0 3541 3541" version="1.1" xml:space="preserve" style="fill-rule:evenodd;clip-rule:evenodd;stroke-linejoin:round;stroke-miterlimit:2;">
  <rect id="P치gina-12" serif:id="P치gina 12" x="0" y="0" width="3541.9" height="3541.9" style="fill:none;"></rect>
  <g id="P치gina-121" serif:id="P치gina 12">
    <g id="Capa-1" serif:id="Capa 1">
      <path d="M2824.99,3246.45c-19.102,0 -29.76,31.552 -29.76,84.856c0,56.193 10.658,84.847 30.132,84.847c20.2,-0 27.927,-36.736 27.927,-87.068c0,-43.357 -6.612,-82.635 -28.299,-82.635" style="fill:#fff;fill-rule:nonzero;"></path>
      <path d="M2449.15,3253.04l-1.115,0c-2.575,16.511 -6.257,42.226 -8.833,56.582l-9.155,51.43l35.242,-0l-8.057,-51.802c-2.601,-15.082 -5.919,-39.699 -8.082,-56.21" style="fill:#fff;fill-rule:nonzero;"></path>
      <path d="M1740.04,3253.04l-1.131,0c-2.543,16.511 -6.225,42.226 -8.751,56.582l-9.221,51.43l35.258,-0l-8.09,-51.802c-2.567,-15.082 -5.87,-39.699 -8.065,-56.21" style="fill:#fff;fill-rule:nonzero;"></path>
      <path d="M1370.81,3253.04l-1.114,0c-2.56,16.511 -6.241,42.226 -8.817,56.582l-9.188,51.43l35.275,-0l-8.091,-51.802c-2.567,-15.082 -5.886,-39.699 -8.065,-56.21" style="fill:#fff;fill-rule:nonzero;"></path>
      <path d="M776.708,3253.04l-1.098,0c-2.559,16.511 -6.257,42.226 -8.816,56.582l-9.18,51.43l35.266,-0l-8.106,-51.802c-2.568,-15.082 -5.87,-39.699 -8.066,-56.21" style="fill:#fff;fill-rule:nonzero;"></path>
      <path d="M3232.45,3253.04l-1.114,0c-2.576,16.511 -6.258,42.226 -8.817,56.582l-9.163,51.43l35.25,-0l-8.066,-51.802c-2.575,-15.082 -5.894,-39.699 -8.09,-56.21" style="fill:#fff;fill-rule:nonzero;"></path>
      <path d="M3263.66,3455.08l-10.658,-56.59l-44.438,0l-11.029,56.59l-46.642,-0l53.61,-247.591l57.671,-0l48.128,247.591l-46.642,-0Zm-137.392,-0l-48.128,-0l-0,-247.591l48.128,-0l-0,247.591Zm-84.517,-205.737l-59.529,-0l0,63.573l55.872,0l-0,40.071l-55.872,0l0,102.093l-48.111,-0l-0,-247.591l107.64,-0l-0,41.854Zm-218.227,208.667c-56.194,0 -78.268,-59.52 -78.268,-127.452c-0,-67.602 26.829,-126.041 81.553,-126.041c59.917,0 76.782,65.786 76.782,122.367c0,93.284 -33.037,131.126 -80.067,131.126m-175.994,-0.718c-19.812,0 -39.295,-5.159 -47.368,-9.939l6.984,-41.483c9.914,5.515 26.78,9.51 40.756,9.51c22.768,0 33.78,-11.73 33.78,-27.894c0,-17.988 -11.012,-26.813 -31.939,-40.385c-33.797,-20.588 -46.667,-46.675 -46.667,-69.104c-0,-39.667 26.466,-72.704 78.268,-72.704c16.172,-0 31.568,4.384 38.94,8.808l-7.727,41.499c-6.984,-4.4 -17.642,-8.445 -31.585,-8.445c-20.588,0 -30.486,12.49 -30.486,25.715c-0,14.703 7.33,22.397 34.143,38.602c32.716,19.829 44.843,44.784 44.843,70.846c-0,45.239 -33.459,74.974 -81.942,74.974m-167.168,-2.212l-10.658,-56.59l-44.438,0l-11.037,56.59l-46.667,-0l53.659,-247.591l57.647,-0l48.144,247.591l-46.65,-0Zm-137.062,-0l-44.083,-0l-37.842,-94.036c-8.065,-20.96 -19.474,-52.173 -24.963,-74.569l-0.752,-0c1.09,24.997 2.964,63.186 2.964,112.766l-0,55.839l-42.242,-0l-0,-247.591l44.066,-0l38.197,96.966c7.347,19.119 19.458,51.075 26.458,72.39l0.727,-0c-1.47,-26.103 -4.763,-69.072 -4.763,-114.616l-0,-54.74l42.233,-0l0,247.591Zm-188.467,-95.125c0,63.524 -23.899,98.055 -71.622,98.055c-51.81,0 -72.01,-35.613 -72.01,-97.717l-0,-152.804l48.111,-0l0,160.878c0,36.372 10.996,47.385 23.494,47.385c13.977,-0 23.899,-9.882 23.899,-47.385l0,-160.878l48.128,-0l0,152.466Zm-178.197,88.512c-10.658,4.417 -33.426,8.825 -51.422,8.825c-28.299,0 -49.581,-8.098 -66.141,-24.642c-21.298,-20.555 -32.682,-57.283 -31.956,-99.913c1.098,-89.957 52.52,-127.444 105.064,-127.444c18.732,-0 32.699,3.665 40.402,7.322l-8.429,41.549c-6.984,-3.69 -16.172,-5.531 -28.316,-5.531c-32.665,-0 -58.752,22.396 -58.752,87.068c-0,59.495 23.139,80.794 45.569,80.794c4.4,-0 7.686,-0.355 9.526,-1.115l0,-59.85l-22.041,-0l-0,-39.303l66.496,-0l-0,132.24Zm-205.349,6.613l-10.691,-56.59l-44.471,0l-10.979,56.59l-46.659,-0l53.643,-247.591l57.654,-0l48.128,247.591l-46.625,-0Zm-125.331,-0l-111.652,-0l-0,-247.591l48.111,-0l0,206.802l63.541,-0l-0,40.789Zm-243.95,-0l-10.641,-56.59l-44.455,0l-11.012,56.59l-46.675,-0l53.642,-247.591l57.696,-0l48.095,247.591l-46.65,-0Zm-137.401,-0l-48.111,-0l-0,-247.591l48.111,-0l0,247.591Zm-102.496,-40.393c8.09,-0 17.269,-1.833 23.131,-3.69l4.796,40.426c-6.984,3.285 -20.58,5.869 -37.504,5.869c-63.177,0 -93.275,-52.165 -93.275,-122.334c-0,-93.309 51.785,-129.665 99.896,-129.665c16.932,-0 28.671,3.294 33.442,6.612l-8.074,40.393c-5.514,-2.551 -11.755,-4.779 -22.412,-4.779c-27.185,-0 -51.81,23.51 -51.81,84.88c-0,59.124 22.429,82.288 51.81,82.288m-133.38,40.393l-44.075,-0l-37.825,-94.036c-8.099,-20.96 -19.466,-52.173 -24.997,-74.569l-0.743,-0c1.114,24.997 2.955,63.186 2.955,112.766l0,55.839l-42.258,-0l-0,-247.591l44.066,-0l38.222,96.966c7.339,19.119 19.482,51.075 26.466,72.39l0.702,-0c-1.461,-26.103 -4.755,-69.072 -4.755,-114.616l-0,-54.74l42.242,-0l-0,247.591Zm-220.795,-0l-10.674,-56.59l-44.429,0l-11.013,56.59l-46.667,-0l53.626,-247.591l57.68,-0l48.128,247.591l-46.651,-0Zm-151.351,-0l-48.145,-0l0,-203.137l-43.719,0l-0,-44.454l135.914,-0l-0,44.454l-44.05,0l-0,203.137Zm-184.818,2.212c-19.854,0 -39.328,-5.159 -47.402,-9.939l6.976,-41.483c9.947,5.515 26.829,9.51 40.797,9.51c22.76,0 33.772,-11.73 33.772,-27.894c0,-17.988 -11.012,-26.813 -31.956,-40.385c-33.788,-20.588 -46.642,-46.675 -46.642,-69.104c0,-39.667 26.458,-72.704 78.243,-72.704c16.172,-0 31.577,4.384 38.957,8.808l-7.719,41.499c-7,-4.4 -17.625,-8.445 -31.584,-8.445c-20.597,0 -30.512,12.49 -30.512,25.715c0,14.703 7.339,22.397 34.152,38.602c32.699,19.829 44.826,44.784 44.826,70.846c0,45.239 -33.409,74.974 -81.908,74.974m-67.644,-2.212l-112.007,-0l0,-247.591l107.624,-0l-0,41.854l-59.512,-0l-0,56.969l56.581,0l0,40.03l-56.581,-0l-0,66.851l63.895,-0l0,41.887Zm-107.863,-307.863c-49.209,0 -89.065,39.923 -89.065,89.099l-0,279.002l3098.95,0c49.193,0 89.099,-39.922 89.099,-89.098l-0,-279.003l-3098.98,0Z" style="fill:#fff;fill-rule:nonzero;"></path>
      <path d="M739.769,986.286c-0.404,-0.115 -43.934,-40.805 -75.518,-82.362c-32.072,-42.176 -52.165,-85.26 -52.842,-89.14c36.298,14.521 68.345,8.346 92.855,53.205c2.65,7.306 10.5,30.098 12.919,37.388c8.833,26.573 16.461,53.576 22.586,80.909m1829.43,380.707c-92.904,55.624 -196.383,54.674 -300.961,49.259c-7.784,-0.421 -15.767,-1.065 -23.841,-1.808c69.906,-13.167 134.982,-51.719 169.678,-113.543c5.408,-9.609 11.434,-31.923 -7.297,-21.504c-4.07,2.237 -49.532,11.383 -97.354,4.35c-44.537,-6.546 -91.113,-28.992 -108.177,-36.018c-31.972,-13.175 -54.996,-41.581 -82.032,-62.029c-21.315,-16.106 -42.696,-26.087 -68.741,-26.896c34.622,-42.564 52.354,-67.858 52.354,-141.429c0,-18.417 -52.544,34.466 -150.493,75.635c-49.052,20.605 -93.375,29.925 -147.05,30.082c-48.013,0.149 -92.467,-3.434 -138.952,-15.941c-25.748,-6.934 -93.012,-31.799 -101.383,-35.555c37.372,-19.978 186.503,-23.973 217.377,-20.027c39.345,5.052 66.092,22.867 82.742,23.238c14.447,0.306 9.354,-34.457 -1.642,-47.567c-18.864,-22.495 -61.816,-48.45 -113.427,-64.498c-46.18,-14.38 -101.548,-20.283 -116.573,-17.228c26.219,-40.492 37.909,-88.067 23.718,-141.974c-2.947,-11.285 -20.539,5.275 -23.23,8.148c-26.335,28.134 -44.504,60.915 -78.285,81.033c-35.225,21.01 -75.585,35.44 -115.218,44.901c-86.457,20.654 -169.81,17.674 -191.596,15.709c4.953,-10.93 7.578,-22.619 2.98,-32.798c-0.734,-2.303 -2.352,-3.467 -4.771,-3.558c-19.54,3.707 -74.52,19.004 -127.758,18.781c-34.54,-0.165 -88.488,-5.531 -151.74,-41.714c-55.623,-31.84 -121.913,-93.821 -140.694,-109.522c-32.492,-27.151 -111.222,-69.154 -155.933,-88.587c-18.442,-7.999 -30.907,-9.51 -32.212,-8.709c-15.627,5.902 -30.8,34.928 -20.142,41.912c6.323,4.127 12.754,8.073 19.226,11.912c12.829,14.546 22.859,34.003 31.337,50.241c-19.945,-7.528 -39.823,-14.768 -55.797,-25.021c-10.484,-6.745 -27.061,16.444 -30.751,23.18c-12.143,22.24 2.939,78.301 31.395,129.22c21.009,37.594 63.202,76.179 80.307,88.108c3.227,2.262 6.918,5.919 6.612,9.84c-2.964,36.983 -26.326,241.267 -53.114,326.759c-75.907,242.398 -222.875,615.08 -238.708,651.569c-2.741,2.996 -59.834,81.842 -111.892,162.025c-45.321,69.839 -85.681,140.719 -97.098,163.379c-10.707,21.282 -49.721,98.898 -37.743,150.361c13.588,58.546 80.629,90.197 107.558,90.857c-3.93,37.991 48.722,52.05 91.245,56.904c3.591,46.873 59.702,62.269 94.563,50.191c16.899,5.193 13.448,23.008 33.426,31.445c23.89,10.121 34.036,6.909 48.739,1.56c0.726,-0.273 1.403,-0.644 2.146,-0.9c11.789,19.268 22.182,38.304 42.754,49.804c19.994,11.186 47.484,9.287 67.676,0.578c19.07,-8.173 38.437,-29.686 45.932,-48.822c4.615,-11.772 8.512,-23.494 11.946,-35.662c7.405,-26.169 21.414,-38.569 40.987,-55.368c52.949,-45.553 87.39,-107.178 148.503,-144.161c30.033,-18.17 62.27,-31.023 92.013,-50.101c26.442,-16.957 75.701,-44.224 96.132,-67.792c24.329,-2.807 52.933,-13.869 78.021,-25.864c44.743,-21.331 171.098,-141.519 207.297,-181.566c1.015,7.653 26.301,95.109 38.535,198.498c8.189,69.178 17.931,192.512 10.03,308.489c-8.032,117.67 -33.797,227.762 -40.855,266.083c-5.531,30.008 34.73,-9.444 37.355,-23.701c6.018,-32.55 39.08,-154.67 47.245,-286.143c9.444,-152.094 -6.629,-315.135 -11.45,-341.477c-4.565,-25.154 -16.783,-106.014 -20.721,-159.285c-2.047,-27.383 23.684,-61.114 44.942,-52c39.418,16.948 93.482,-10.319 82.808,-22.735c-34.169,-39.839 -98.609,-45.321 -119.883,-30.115c-13.604,9.717 -26.441,24.956 -38.593,43.225c-7.562,11.301 -106.245,139.48 -143.633,169.909c-35.547,28.976 -75.485,55.929 -116.943,75.717c-41.144,19.672 -82.957,16.882 -127.081,16.122c-46.973,-0.825 -82.668,40.988 -67.85,40.988c17.138,-0 66.413,8.024 79.374,7.685c-9.692,10.195 -45.453,30.784 -57.993,37.842c-87.638,49.498 -146.514,108.35 -183.44,150.675c-35.588,40.764 -83.262,71.094 -103.966,122.879c-4.656,11.64 -7.653,23.989 -11.062,36.034c-3.913,13.869 -25.038,8.858 -35.423,7.454c-24.84,-3.327 -37.776,-21.975 -49.655,-41.309c16.04,-34.201 35.134,-40.376 43.662,-60.081c2.559,-5.928 -1.759,-23.701 -14.208,-19.12c-12.077,4.45 -22.165,18.302 -27.069,29.637c-10.253,23.75 -20.497,41.713 -49.193,40.417c-10.93,-0.462 -19.482,-8.668 -27.423,-17.492c19.895,-18.946 35.596,-43.448 51.917,-64.54c27.911,-36.1 65.1,-64.201 107.863,-81.809c12.226,-5.052 21.859,-17.947 27.102,-29.67c2.435,-5.531 -0.207,-25.219 -12.639,-20.126c-51.901,21.398 -92.03,58.356 -127.04,101.614c-20.671,25.575 -39.534,61.32 -70.392,75.18c-1.049,0.05 -11.838,6.002 -34.004,6.002c-16.51,-0 -27.407,-11.046 -35.679,-18.219c11.863,-14.381 20.49,-36.216 10.682,-36.357c-21.232,-0.28 -42.597,-3.681 -63.325,-8.098c-6.885,-1.469 -36.059,-9.98 -49.581,-19.202c11.119,-14.933 18.863,-35.646 4.35,-32.732c-58.175,11.533 -108.234,-32.377 -110.125,-90.254c0.743,-47.773 16.172,-77.83 41.087,-121.897c21.62,-38.296 164.89,-270.524 232.673,-333.14c56.92,-52.569 31.75,-58.595 2.081,-35.2c-3.368,2.675 201.692,-493.539 213.719,-540.685c30.008,-117.736 35.968,-157.881 39.328,-253.881c2.469,-17.427 3.418,-102.324 18.715,-29.026c3.096,14.818 39.278,-39.996 35.035,-67.849c-1.932,-12.73 -3.739,-39.37 -16.172,-93.285c-16.651,-72.126 -43.563,-148.239 -47.897,-157.848c15.347,8.412 30.553,17.171 45.156,26.97c46.585,31.188 89.231,76.699 122.318,121.641c36.695,49.87 66.314,101.605 93.631,157.204c30.322,61.766 32.484,80.728 10.897,145.35c-3.649,10.881 3.657,15.206 12.705,9.461c11.656,-7.364 20.349,-20.201 24.666,-33.096c17.79,-53.353 21.365,-61.881 7.983,-116.803c-7.9,-32.501 -25.558,-62.913 -41.837,-91.773c-5.597,-9.865 -10.658,-19.829 -15.76,-29.76c27.961,0.767 53.602,2.74 116.399,13.703c50.423,8.8 109.498,23.825 141.256,32.955c18.929,5.449 58.727,8.594 58.727,51.785c0,36.298 25.988,4.714 35.308,-25.616c4.045,-13.208 -0.611,-33.12 -1.56,-35.473c17.493,-1.485 120.113,-22.767 149.948,-34.275c30.99,-11.921 61.864,-27.738 88.405,-47.649c19.053,-14.282 33.888,-33.938 48.689,-52.9c-0.148,83.989 -87.901,128.872 -162.892,155.479c-14.24,5.028 -59.949,60.981 -40.541,54.097c46.023,-16.337 140.339,-68.593 169.48,-89.57c28.794,-20.704 131.274,-7.677 171.667,9.469c-9.551,0.512 -179.923,-3.839 -234.869,60.651c-5.515,6.481 -22.645,26.846 -13.415,36.084c13.827,13.869 99.764,41.598 124.629,48.953c61.122,18.013 126.148,22.298 188.971,14.282c92.012,-11.747 215.04,-73.339 236.71,-94.803c-0.454,7.966 -22.396,50.728 -64.969,89.181c-44.305,40.03 -92.739,77.121 -132.29,77.121c-30.99,-0 -61.798,50.142 -37.875,50.142c80.827,-0 148.289,-52.371 171.412,-78.103c5.126,-5.713 9.766,-8.42 13.852,-9.188c39.502,-7.487 56.961,15.495 88.257,41.755c28.522,23.932 53.271,47.55 90.387,57.646c38.114,10.377 79.704,19.78 118.957,23.874c15.256,1.602 33.764,3.707 51.224,2.551c-55.525,45.511 -169.29,52.66 -253.345,7.562c-7.413,-3.987 -4.111,22.553 6.076,46.807c-45.404,-18.186 -88.24,-43.984 -112.783,-84.748c-38.874,-64.572 -46.824,29.075 -38.37,41.582c55.995,83.229 167.086,115.045 261.815,122.54c99.17,7.835 197.168,7.017 287.529,-31.989c-6.579,6.786 -70.83,62.542 -163.362,89.305c-92.888,26.863 -214.158,24.708 -261.105,21.381c-16.758,-1.188 -44.306,47.633 -28.861,48.731c45.338,3.187 92.789,4.301 140.24,1.882c22.942,53.469 75.684,98.254 127.684,121.682c47.402,21.365 95.414,26.062 144.896,30.446c-22.892,5.209 -105.172,20.522 -178.643,-11.062c-44.083,-18.946 -88.942,-79.696 -103.835,-100.533c-14.017,-19.639 -22.297,62.27 -14.157,75.329c24.072,38.536 95.108,76.634 113.914,81.215c0.016,0.133 -0,0.306 0.016,0.455c2.27,11.383 36.323,79.2 66.116,126.99c30.528,48.929 51.81,68.006 59.421,80.546c4.656,9.37 8.734,19.094 11.913,29.397c14.785,48.045 -8.09,75.651 -41.095,106.509c-9.246,8.627 -20.63,20.531 -20.63,34.441c0,12.961 13.291,4.903 18.533,0.71c35.679,-28.456 61.7,-42.762 77.344,-68.898c16.749,-28.002 11.606,-63.285 6.596,-99.22c23.775,-4.788 43.414,-21.736 56.317,-45.676c2.047,-3.822 12.804,-24.378 1.098,-24.593c-5.226,-0.099 -23.024,20.383 -40.261,25.303c-15.545,4.449 -30.619,-6.324 -35.572,-10.922c-0.066,-0.058 -0.115,-0.107 -0.173,-0.14c-34.813,-32.699 -41.037,-43.357 -64.11,-75.247c-24.667,-34.102 -38.825,-70.268 -39.114,-71.977c70.698,4.235 144.194,-3.533 193.676,-59.562c3.624,-4.111 26.475,-35.167 10.41,-37.033c-65.489,-7.644 -125.744,-7.149 -187.773,-33.318c-37.306,-15.734 -76.312,-45.09 -102.621,-80.018c19.185,-2.336 161.976,-42.101 215.874,-84.021c129.17,-100.467 111.669,-148.108 93.449,-137.194" style="fill:#fff;fill-rule:nonzero;"></path>
      <path d="M1939.34,2573.47c-11.368,0 -22.43,-1.114 -33.294,-2.964l98.51,-388.483c79.027,27.201 136.038,102.06 136.038,190.193c-0,110.991 -90.279,201.254 -201.254,201.254m-60.577,-9.337c-81.504,-25.764 -140.727,-102.076 -140.727,-191.917c-0,-110.959 90.345,-201.271 201.304,-201.271c13.059,-0 25.797,1.354 38.18,3.773l-98.757,389.415Zm233.969,-341.411l43.819,-43.827l-19.796,-19.78l-43.596,43.629c-23.395,-21.232 -51.116,-37.792 -81.718,-47.938l26.458,-104.305l-147.884,-38.915l27.77,-117.497l-27.077,-7.108l-34.243,144.673l147.546,38.841l-19.573,76.972c-14.579,-2.881 -29.686,-4.45 -45.098,-4.45c-57.333,0 -109.605,21.225 -149.816,56.128l-49.664,-49.738l-19.796,19.846l49.482,49.448c-36.81,40.732 -59.438,94.44 -59.438,153.515c0,59.239 22.768,113.088 59.727,153.836l-49.92,49.903l19.755,19.796l50.109,-50.093c23.701,20.415 51.497,36.183 82.066,45.627l-29.604,116.787l156.932,38.791l-31.683,122.615l27.069,7.165l38.799,-150.113l-157.064,-38.874l22.834,-89.932c13.093,2.336 26.458,3.773 40.212,3.773c59.024,-0 112.783,-22.628 153.464,-59.504l44.05,44.099l19.813,-19.796l-44.24,-44.231c34.887,-40.228 56.16,-92.533 56.16,-149.849c0,-57.143 -21.125,-109.333 -55.855,-149.494" style="fill:#fff;fill-rule:nonzero;"></path>
      <path d="M910.517,261.18c12.788,1.593 28.605,0.809 47.485,-1.726c68.394,-9.171 105.609,-47.971 97.486,-108.54c-7.777,-57.951 -52.553,-80.447 -115.078,-72.06c-24.733,3.303 -43.373,7.802 -52.801,11.706l22.908,170.62Zm-85.037,-204.045c26.747,-8.239 62.03,-16.932 107.624,-23.057c55.987,-7.496 98.741,0 127.956,19.961c26.895,17.625 45.486,47.6 50.728,86.68c5.317,39.716 -2.212,72.522 -21.282,98.32c-25.657,35.91 -72.332,58.744 -127.667,66.174c-16.964,2.27 -32.682,3.69 -46.13,2.196l23.585,175.803l-56.639,7.612l-58.175,-433.689Z" style="fill:#fff;fill-rule:nonzero;"></path>
      <path d="M1182.17,459.74l-5.16,-317.925l57.803,-0.95l5.176,317.942l-57.819,0.933Zm57.737,-408.295c0.999,19.705 -13.2,35.695 -36.199,36.067c-20.341,0.338 -35.085,-15.206 -35.407,-34.887c-0.305,-20.382 14.529,-36.397 35.539,-36.736c21.686,-0.338 35.728,15.19 36.067,35.556" style="fill:#fff;fill-rule:nonzero;"></path>
      <path d="M1325.2,224.628c3.772,-32.65 6.241,-59.463 7.272,-85.797l50.902,5.87l-2.774,52.594l1.305,0.148c19.144,-28.2 59.058,-53.353 111.305,-47.319c43.72,5.044 108.573,38.998 96.058,147.348l-21.794,188.583l-57.431,-6.629l21.034,-182.078c5.869,-50.902 -8.14,-95.521 -62.294,-101.779c-37.859,-4.367 -70.302,18.996 -83.816,49.862c-3.434,6.852 -5.886,16.494 -6.992,26.293l-21.95,189.903l-57.432,-6.629l26.607,-230.37Z" style="fill:#fff;fill-rule:nonzero;"></path>
      <path d="M1878.68,377.253c2.947,-9.386 4.871,-17.732 4.739,-26.037c0.049,-35.118 -18.607,-69.93 -58.72,-82.569c-52.643,-16.576 -104.255,16.073 -126.362,86.259c-18.748,59.545 -4.252,118.504 55.277,137.276c33.838,10.641 71.242,-0.965 94.208,-32.327c6.093,-8.404 10.707,-18.673 13.687,-28.076l17.171,-54.526Zm94.729,-101.721c-8.197,21.521 -17.129,45.577 -28.769,82.552l-55.467,176.101c-21.91,69.567 -49.127,107.83 -86.887,124.877c-38.114,18.302 -83.485,13.638 -121.731,1.61c-36.323,-11.467 -73.703,-32.856 -92.987,-56.838l27.011,-37.643c16.106,18.846 43.868,39.98 81.487,51.834c56.4,17.749 107.029,1.338 131.102,-75.122l10.674,-33.839l-1.263,-0.404c-25.781,22.875 -65.489,35.184 -112.494,20.366c-75.197,-23.668 -108.961,-104.561 -82.503,-188.55c32.36,-102.753 117.769,-139.934 187.344,-118.025c52.644,16.593 72.795,53.238 78.053,82.437l1.255,0.388l16.915,-44.934l48.26,15.19Z" style="fill:#fff;fill-rule:nonzero;"></path>
      <path d="M2029.83,476.267c-33.087,61.287 -22.751,126.569 26.978,153.382c48.574,26.219 109.621,0.182 143.641,-62.83c25.575,-47.418 34.293,-120.345 -25.83,-152.788c-60.14,-32.443 -116.102,9.048 -144.789,62.236m223.601,116.878c-55.838,103.496 -151.879,109.935 -219.506,73.447c-75.767,-40.889 -104.239,-127.882 -56.516,-216.345c50.531,-93.681 141.454,-115.541 218.946,-73.753c80.373,43.34 103.223,131.069 57.076,216.651" style="fill:#fff;fill-rule:nonzero;"></path>
      <path d="M2330.1,764.249c8.445,28.877 27.44,63.722 56.705,90.131c43.389,39.179 89.454,39.146 119.379,5.985c27.746,-30.734 26.02,-64.127 -2.947,-121.236c-36.455,-67.462 -44.537,-125.183 -2.724,-171.503c46.221,-51.207 122.986,-50.951 186.848,6.703c33.682,30.396 51.001,60.189 58.159,81.686l-42.952,24.056c-5.449,-15.528 -18.608,-45.099 -48.335,-71.945c-44.859,-40.5 -86.151,-29.091 -106.401,-6.645c-27.73,30.718 -21.382,63.879 8.123,122.375c36.199,71.656 40.293,124.011 -3.286,172.271c-45.775,50.736 -122.945,60.733 -200.478,-9.271c-31.717,-28.604 -57.985,-69.138 -64.977,-96.694l42.886,-25.913Z" style="fill:#fff;fill-rule:nonzero;"></path>
      <path d="M2727.01,1044.23c-38.263,-50.159 -91.616,-99.253 -139.918,-60.8c-29.331,23.329 -27.638,53.898 -9.237,77.038c25.797,32.393 62.698,36.595 89.511,27.003c5.853,-2.138 11.822,-5.193 16.453,-8.883l43.191,-34.358Zm-121.665,107.739l28.488,-28.555l-1.23,-1.552c-30.585,1.659 -69.344,-11.153 -97.544,-46.626c-40.095,-50.373 -25.12,-104.321 10.881,-132.942c60.148,-47.864 135.567,-20.605 211.59,75.932l5.126,-4.095c20.589,-16.337 53.081,-51.471 12.581,-102.34c-18.401,-23.156 -44.826,-41.582 -70.062,-50.06l21.645,-34.011c29.727,9.923 62.187,32.781 87.143,64.143c60.543,76.088 23.378,135.906 -26.492,175.597l-93.028,74.058c-21.604,17.171 -41.879,34.985 -56.366,51.562l-32.732,-41.111Z" style="fill:#fff;fill-rule:nonzero;"></path>
      <path d="M2694.07,1287.44l-30.572,-49.334l396.477,-245.692l30.571,49.334l-396.476,245.692Z" style="fill:#fff;"></path>
      <path d="M3024.81,1224.27l-135.435,132.232c-21.736,21.778 -41.904,40.641 -62.913,57.721l0.817,1.791c26.862,-4.581 54.583,-7.388 85.219,-10.112l187.996,-19.797l25.633,54.749l-340.909,21.687l-23.395,-49.994l236.802,-244.223l26.185,55.946Z" style="fill:#fff;fill-rule:nonzero;"></path>
      <path d="M3040.67,1703.99c-15.933,-61.031 -46.196,-126.891 -105.609,-110.042c-36.034,10.203 -46.287,39.047 -38.23,67.511c11.285,39.823 43.728,57.96 72.15,59.446c6.241,0.273 12.903,-0.256 18.591,-1.841l53.098,-15.074Zm-153.803,52.462l37.297,-15.346l-0.52,-1.882c-28.877,-10.278 -59.669,-37.042 -72.036,-80.671c-17.542,-61.947 17.122,-105.914 61.378,-118.446c73.942,-20.976 133.033,33.302 165.914,151.723l6.315,-1.816c25.286,-7.165 68.799,-27.011 51.083,-89.586c-8.081,-28.472 -25.343,-55.656 -45.321,-73.215l33.071,-23.024c23.601,20.638 44.751,54.253 55.656,92.805c26.525,93.548 -30.874,134.404 -92.177,151.806l-114.418,32.393c-26.565,7.529 -52.107,16.123 -71.911,25.823l-14.331,-50.564Z" style="fill:#fff;fill-rule:nonzero;"></path>
      <path d="M3320.79,1865.64c-18.723,3.624 -37.082,-7.413 -40.682,-30.131c-3.401,-21.431 10.691,-37.603 29.496,-40.583c20.118,-3.178 38.049,9.27 41.417,30.693c3.294,20.786 -10.105,36.859 -30.231,40.021m-516.497,-69.311c6.043,25.633 16.8,47.22 33.855,58.489c20.638,12.713 46.246,14.628 121.492,2.757l262.847,-41.582l9.031,57.11l-284.921,45.049c-60.998,9.675 -102.126,6.175 -135.064,-17.221c-29.331,-21.315 -46.279,-61.204 -51.1,-91.674l43.86,-12.928Z" style="fill:#fff;fill-rule:nonzero;"></path>
      <path d="M3124.82,2174.62c36.81,-0.644 93.375,-18.401 91.08,-83.419c-2.064,-58.455 -56.804,-82.139 -97.049,-85.342l5.969,168.761Zm-47.352,-167.961c-78.053,4.079 -108.499,55.145 -106.468,112.916c1.453,41.375 9.576,66.074 19.524,87.406l-41.045,11.334c-9.882,-20.043 -21.621,-54.468 -23.412,-105.047c-3.451,-97.833 58.835,-158.542 154.719,-161.943c95.852,-3.369 173.377,50.439 176.629,143.013c3.666,103.76 -86.646,134.569 -145.077,136.6c-11.813,0.437 -21.067,-0.545 -26.97,-0.999l-7.9,-223.28Z" style="fill:#fff;fill-rule:nonzero;"></path>
    </g>
  </g>
</svg>
